<?xml version="1.0"?>
<svg xmlns="http://www.w3.org/2000/svg" xmlns:xlink="http://www.w3.org/1999/xlink" version="1.1" id="Capa_1" x="0px" y="0px" viewBox="0 0 512.056 512.056" style="enable-background:new 0 0 512.056 512.056;" xml:space="preserve" width="512px" height="512px" class=""><g><path style="fill:#00897B" d="M208.056,0.028c-114.7,0-208,93.3-208,208c0,39.4,10.9,77.3,31.6,110.1l-30.5,75.9  c-2.4,6-1,12.7,3.6,17.2c3.1,3.1,7.2,4.7,11.3,4.7c2,0,4-0.4,6-1.2l75.9-30.4c32.8,20.8,70.7,31.7,110.1,31.7  c114.7,0,208-93.3,208-208S322.757,0.028,208.056,0.028z" data-original="#2196F3" class="active-path" data-old_color="#2196F3"/><path style="fill:#00897B" d="M510.856,490.128l-27.6-69c18.8-30.2,28.8-64.9,28.8-101.1c0-58-25.8-110.1-66.6-145.3  c1.5,10.8,2.6,22.1,2.6,33.3c0,132.4-107.6,240-240,240c-10.9,0-22.4-1-33.1-2.4c35.2,40.6,87.2,66.4,145.1,66.4  c36.2,0,70.9-10,101.1-28.8l69,27.6c1.9,0.8,4,1.2,6,1.2c4.2,0,8.3-1.6,11.3-4.7C511.956,502.828,513.256,496.028,510.856,490.128z" data-original="#64B5F6" class="" data-old_color="#64B5F6"/></g> </svg>
